<svg version="1.1" xmlns="http://www.w3.org/2000/svg" viewBox="0 0 1475.7094399509006 581.1615215266902" width="1475.7094399509006" height="581.1615215266902">
  <!-- svg-source:excalidraw -->
  
  <defs>
    <style class="style-fonts">
      @font-face {
        font-family: "Virgil";
        src: url("https://excalidraw.com/Virgil.woff2");
      }
      @font-face {
        font-family: "Cascadia";
        src: url("https://excalidraw.com/Cascadia.woff2");
      }
    </style>
    
  </defs>
  <rect x="0" y="0" width="1475.7094399509006" height="581.1615215266902" fill="#ffffff"></rect><g transform="translate(333.2890790121369 10) rotate(0 53.559974670410156 12.5)"><text x="0" y="0" font-family="Virgil, Segoe UI Emoji" font-size="20px" fill="#1e1e1e" text-anchor="start" style="white-space: pre;" direction="ltr" dominant-baseline="text-before-edge">IMAGENES</text></g><g stroke-linecap="round"><g transform="translate(375.6891034261994 53.75736248316832) rotate(0 -49.95246519781648 32.07837433230132)"><path d="M0.7 0.39 C-16.1 10.8, -83.88 52.49, -100.61 63.11 M-0.39 -0.44 C-16.81 10.09, -81.56 54.15, -98.22 64.6" stroke="#1e1e1e" stroke-width="1" fill="none"></path></g><g transform="translate(375.6891034261994 53.75736248316832) rotate(0 -49.95246519781648 32.07837433230132)"><path d="M-79.63 39.53 C-85.99 48.8, -90.02 57.68, -96.92 62.84 M-80.5 41.24 C-85.64 49.07, -91.92 56.55, -97.98 64.28" stroke="#1e1e1e" stroke-width="1" fill="none"></path></g><g transform="translate(375.6891034261994 53.75736248316832) rotate(0 -49.95246519781648 32.07837433230132)"><path d="M-68.36 56.69 C-78.4 60.57, -86 64.01, -96.92 62.84 M-69.23 58.39 C-78.11 60.72, -88.05 62.64, -97.98 64.28" stroke="#1e1e1e" stroke-width="1" fill="none"></path></g></g><mask></mask><g transform="translate(218.88911563323063 141.25096899783125) rotate(0 26.839981079101562 12.5)"><text x="0" y="0" font-family="Virgil, Segoe UI Emoji" font-size="20px" fill="#1e1e1e" text-anchor="start" style="white-space: pre;" direction="ltr" dominant-baseline="text-before-edge">BITS</text></g><g stroke-linecap="round"><g transform="translate(400.48909121916813 52.15738689723082) rotate(0 33.14639124175534 31.200867039971058)"><path d="M1.07 0.36 C12.05 10.55, 55.23 51.07, 66.13 61.45 M0.17 -0.5 C10.96 9.86, 54.11 52.69, 65.03 62.9" stroke="#1e1e1e" stroke-width="1" fill="none"></path></g><g transform="translate(400.48909121916813 52.15738689723082) rotate(0 33.14639124175534 31.200867039971058)"><path d="M38.23 50.22 C46.08 54.36, 56.66 58.4, 65.75 62.58 M37.29 51.49 C47.75 54.24, 55.39 59.71, 64.68 63.41" stroke="#1e1e1e" stroke-width="1" fill="none"></path></g><g transform="translate(400.48909121916813 52.15738689723082) rotate(0 33.14639124175534 31.200867039971058)"><path d="M52.5 35.47 C55.87 44.4, 61.93 53.11, 65.75 62.58 M51.56 36.75 C57.1 44.49, 59.91 54.96, 64.68 63.41" stroke="#1e1e1e" stroke-width="1" fill="none"></path></g></g><mask></mask><g transform="translate(430.88911563323063 144.15737163844176) rotate(0 53.249969482421875 12.5)"><text x="0" y="0" font-family="Virgil, Segoe UI Emoji" font-size="20px" fill="#1e1e1e" text-anchor="start" style="white-space: pre;" direction="ltr" dominant-baseline="text-before-edge">VECTORES</text></g><g stroke-linecap="round"><g transform="translate(233.4037610197696 175.65099341189375) rotate(0 -30.43874126580198 31.313636730260953)"><path d="M0.33 0.35 C-9.91 10.68, -50.41 51.51, -60.52 62.05 M-0.95 -0.51 C-11.4 9.94, -51.25 52.78, -61.21 63.13" stroke="#1e1e1e" stroke-width="1" fill="none"></path></g><g transform="translate(233.4037610197696 175.65099341189375) rotate(0 -30.43874126580198 31.313636730260953)"><path d="M-48.72 36.4 C-55.24 47.27, -57.2 55.14, -60.85 63.39 M-49.27 35.2 C-51.74 43.55, -55.46 52.33, -61.54 63.33" stroke="#1e1e1e" stroke-width="1" fill="none"></path></g><g transform="translate(233.4037610197696 175.65099341189375) rotate(0 -30.43874126580198 31.313636730260953)"><path d="M-33.8 50.49 C-46.01 56.04, -53.64 58.56, -60.85 63.39 M-34.35 49.29 C-41.55 53.39, -49.85 57.83, -61.54 63.33" stroke="#1e1e1e" stroke-width="1" fill="none"></path></g></g><mask></mask><g transform="translate(138.08912784026188 252.95742046656676) rotate(0 55.98997497558594 12.5)"><text x="0" y="0" font-family="Virgil, Segoe UI Emoji" font-size="20px" fill="#1e1e1e" text-anchor="start" style="white-space: pre;" direction="ltr" dominant-baseline="text-before-edge">JPG, JPEG</text></g><g transform="translate(286.0891278402619 252.15740215601988) rotate(0 20.939987182617188 12.5)"><text x="0" y="0" font-family="Virgil, Segoe UI Emoji" font-size="20px" fill="#1e1e1e" text-anchor="start" style="white-space: pre;" direction="ltr" dominant-baseline="text-before-edge">PNG</text></g><g stroke-linecap="round"><g transform="translate(246.90756412485587 170.05098730837813) rotate(0 29.179930145547075 38.19878114283435)"><path d="M1.12 0.2 C10.94 12.68, 48.45 63.09, 58.11 75.64 M0.25 -0.74 C9.95 11.88, 47.3 64.23, 57.03 77.14" stroke="#1e1e1e" stroke-width="1" fill="none"></path></g><g transform="translate(246.90756412485587 170.05098730837813) rotate(0 29.179930145547075 38.19878114283435)"><path d="M32.44 60.04 C37.97 65.33, 43.65 68.77, 55.12 76.94 M32.29 59.81 C37.61 64.33, 43.14 66.49, 56.08 77.32" stroke="#1e1e1e" stroke-width="1" fill="none"></path></g><g transform="translate(246.90756412485587 170.05098730837813) rotate(0 29.179930145547075 38.19878114283435)"><path d="M49 47.93 C50.71 56.22, 52.48 62.52, 55.12 76.94 M48.85 47.69 C50.74 54.75, 52.8 59.45, 56.08 77.32" stroke="#1e1e1e" stroke-width="1" fill="none"></path></g></g><mask></mask><g transform="translate(54.34903079436344 250.05736553492613) rotate(0 19.079994201660156 12.5)"><text x="0" y="0" font-family="Virgil, Segoe UI Emoji" font-size="20px" fill="#1e1e1e" text-anchor="start" style="white-space: pre;" direction="ltr" dominant-baseline="text-before-edge">GIF</text></g><g stroke-linecap="round"><g transform="translate(217.65482524324375 174.7619402828076) rotate(0 -65.3346184124099 33.06413810587742)"><path d="M-0.28 0.83 C-22.08 11.63, -109.6 54, -131.75 64.73 M1.78 0.22 C-20.05 11.17, -110.36 54.88, -132.45 65.91" stroke="#1e1e1e" stroke-width="1" fill="none"></path></g><g transform="translate(217.65482524324375 174.7619402828076) rotate(0 -65.3346184124099 33.06413810587742)"><path d="M-110.28 45.09 C-117.38 47.45, -121.22 52.93, -133.69 66.84 M-112.17 45.09 C-117.83 49.79, -123.39 56.89, -132.4 66.52" stroke="#1e1e1e" stroke-width="1" fill="none"></path></g><g transform="translate(217.65482524324375 174.7619402828076) rotate(0 -65.3346184124099 33.06413810587742)"><path d="M-101.24 63.51 C-110.32 61.78, -116.16 63.2, -133.69 66.84 M-103.13 63.51 C-111.23 63.16, -119.26 65.25, -132.4 66.52" stroke="#1e1e1e" stroke-width="1" fill="none"></path></g></g><mask></mask><g transform="translate(371.0090726034455 255.65724956812926) rotate(0 28.079986572265625 12.5)"><text x="0" y="0" font-family="Virgil, Segoe UI Emoji" font-size="20px" fill="#1e1e1e" text-anchor="start" style="white-space: pre;" direction="ltr" dominant-baseline="text-before-edge">WEBP</text></g><g stroke-linecap="round"><g transform="translate(260.8399477923308 176.15098541569637) rotate(0 58.14878947959238 31.94297497079458)"><path d="M0.05 -0.18 C19.79 10.6, 98.3 52.91, 117.69 63.72 M-1.39 -1.31 C18.28 9.74, 96.83 54.51, 116.83 65.2" stroke="#1e1e1e" stroke-width="1" fill="none"></path></g><g transform="translate(260.8399477923308 176.15098541569637) rotate(0 58.14878947959238 31.94297497079458)"><path d="M86.91 60.8 C93.95 59.65, 102.56 63.41, 117.77 66.39 M88.15 60.51 C96.21 61.86, 105.82 63.08, 117.5 64.33" stroke="#1e1e1e" stroke-width="1" fill="none"></path></g><g transform="translate(260.8399477923308 176.15098541569637) rotate(0 58.14878947959238 31.94297497079458)"><path d="M96.86 42.86 C101.42 45.93, 107.69 53.92, 117.77 66.39 M98.11 42.56 C103.04 49.57, 109.46 56.54, 117.5 64.33" stroke="#1e1e1e" stroke-width="1" fill="none"></path></g></g><mask></mask><g stroke-linecap="round"><g transform="translate(506.88911563323063 176.9573594314105) rotate(0 24.21573210468523 28.280787214450527)"><path d="M-1.13 0.87 C6.71 9.93, 38.95 46.14, 47.25 55.17 M0.48 0.29 C8.69 9.4, 41.6 47.01, 49.56 56.28" stroke="#1e1e1e" stroke-width="1" fill="none"></path></g><g transform="translate(506.88911563323063 176.9573594314105) rotate(0 24.21573210468523 28.280787214450527)"><path d="M24.78 40.47 C30.31 47.65, 38.39 50.1, 48.28 57.44 M23.53 40.83 C31.93 46.84, 40.22 50.1, 49.78 55.45" stroke="#1e1e1e" stroke-width="1" fill="none"></path></g><g transform="translate(506.88911563323063 176.9573594314105) rotate(0 24.21573210468523 28.280787214450527)"><path d="M40.27 27.01 C41.02 38.29, 44.21 44.97, 48.28 57.44 M39.02 27.37 C42.57 37.74, 45.87 45.33, 49.78 55.45" stroke="#1e1e1e" stroke-width="1" fill="none"></path></g></g><mask></mask><g transform="translate(542.8891156332306 250.55739605250426) rotate(0 19.139991760253906 12.5)"><text x="0" y="0" font-family="Virgil, Segoe UI Emoji" font-size="20px" fill="#1e1e1e" text-anchor="start" style="white-space: pre;" direction="ltr" dominant-baseline="text-before-edge">SVG</text></g><g stroke-linecap="round" transform="translate(94.88905459807438 325.7574082595355) rotate(0 95.38845459422168 85.84698672266796)"><path d="M0.85 1.61 C41.55 1.78, 84.31 -0.11, 188.82 -0.31 M-0.48 -0.1 C59.32 0.51, 116.37 0.49, 191.2 -0.75 M191.62 0.58 C189.05 66.87, 188.21 131.38, 192.23 173.18 M189.99 -0.97 C190.3 54.5, 189.61 110.28, 190.52 171.02 M192.47 171.34 C149.15 173.22, 105.82 175, -0.75 169.74 M190.28 171.45 C115.71 172.22, 39.88 173.51, 0.85 171.97 M-0.04 171.36 C-1.49 118.59, -2.72 70.48, 1.27 -1.5 M0.62 171.8 C-0.88 128.68, -0.88 84, 0.85 0.7" stroke="#1e1e1e" stroke-width="1" fill="none"></path></g><g stroke-linecap="round"><g transform="translate(95.68910342619938 335.3573533278949) rotate(0 94.80152312216268 -1.2347206671894924)"><path d="M-1.7 -1.2 C65.78 -0.46, 131.58 0.51, 191.19 -2 M-0.43 -0.22 C38.09 -0.87, 77.96 -1.82, 191.3 -2.25" stroke="#1e1e1e" stroke-width="1" fill="none"></path></g></g><mask></mask><g stroke-linecap="round"><g transform="translate(95.68910342619938 344.15737163844176) rotate(0 94.16814373250315 0.39654469745548226)"><path d="M1 0.5 C52.23 -0.6, 106.82 -0.48, 187.9 0.78 M-0.65 0.68 C74.58 1.45, 147.88 0.91, 188.98 -0.12" stroke="#1e1e1e" stroke-width="1" fill="none"></path></g></g><mask></mask><g stroke-linecap="round"><g transform="translate(95.68910342619938 355.3573533278949) rotate(0 95.24257153242627 -1.282008889737881)"><path d="M-1.64 -1.76 C66 1.42, 131.22 -0.42, 191.7 -0.8 M0.74 0.11 C69.21 -2.31, 137.04 -3.68, 192.13 -1.8" stroke="#1e1e1e" stroke-width="1" fill="none"></path></g></g><mask></mask><g stroke-linecap="round"><g transform="translate(104.24694174827914 497.76700952090573) rotate(0 -1.0372656402220173 -86.13240460580977)"><path d="M-1.24 -0.27 C-1.2 -39.66, -3.85 -81.8, 0.02 -171.38 M-0.13 0.67 C-0.84 -43.53, -1.71 -87.56, -1.46 -172.94" stroke="#1e1e1e" stroke-width="1" fill="none"></path></g></g><mask></mask><g stroke-linecap="round"><g transform="translate(111.68910342619938 497.76700952090573) rotate(0 -0.5023201112940114 -84.43390564289706)"><path d="M0.57 0.94 C-2.16 -55.43, -1.77 -110.32, -1.05 -167.91 M0.37 0.07 C-0.62 -47.04, -0.68 -93.82, -0.41 -169.81" stroke="#1e1e1e" stroke-width="1" fill="none"></path></g></g><mask></mask><g transform="translate(257.8545788800876 521.1615215266902) rotate(0 65.37996673583984 25)"><text x="0" y="0" font-family="Virgil, Segoe UI Emoji" font-size="20px" fill="#1e1e1e" text-anchor="start" style="white-space: pre;" direction="ltr" dominant-baseline="text-before-edge">RESOLUCIÓN</text><text x="0" y="25" font-family="Virgil, Segoe UI Emoji" font-size="20px" fill="#1e1e1e" text-anchor="start" style="white-space: pre;" direction="ltr" dominant-baseline="text-before-edge">100*100</text></g><g transform="translate(886.1919097365658 45.1630798209257) rotate(0 58.82996368408203 12.5)"><text x="0" y="0" font-family="Virgil, Segoe UI Emoji" font-size="20px" fill="#1e1e1e" text-anchor="start" style="white-space: pre;" direction="ltr" dominant-baseline="text-before-edge">PANTALLAS</text></g><g stroke-linecap="round"><g transform="translate(924.0933614512469 66.9006599305624) rotate(0 -85.34055714570343 35.40684099370888)"><path d="M-1.33 -0.05 C-34.98 12.53, -74.26 28.24, -170.21 70.86 M-0.05 0.07 C-52.45 21.84, -103.87 42.11, -170.63 70.41" stroke="#1e1e1e" stroke-width="1" fill="none"></path></g><g transform="translate(924.0933614512469 66.9006599305624) rotate(0 -85.34055714570343 35.40684099370888)"><path d="M-149.9 50.02 C-151.51 52.85, -158.99 58.03, -169.73 71.61 M-148.63 50.14 C-156.1 57.01, -162.19 62.28, -170.14 71.16" stroke="#1e1e1e" stroke-width="1" fill="none"></path></g><g transform="translate(924.0933614512469 66.9006599305624) rotate(0 -85.34055714570343 35.40684099370888)"><path d="M-141.99 68.96 C-145.18 67.71, -154.35 68.85, -169.73 71.61 M-140.71 69.08 C-150.74 70.18, -159.24 69.69, -170.14 71.16" stroke="#1e1e1e" stroke-width="1" fill="none"></path></g></g><mask></mask><g transform="translate(691.6684038730884 155.52314076028443) rotate(0 65.37996673583984 12.5)"><text x="0" y="0" font-family="Virgil, Segoe UI Emoji" font-size="20px" fill="#1e1e1e" text-anchor="start" style="white-space: pre;" direction="ltr" dominant-baseline="text-before-edge">RESOLUCIÓN</text></g><g transform="translate(663.7997018841361 197.32623626797772) rotate(0 130.07992553710938 62.5)"><text x="0" y="0" font-family="Virgil, Segoe UI Emoji" font-size="20px" fill="#1e1e1e" text-anchor="start" style="white-space: pre;" direction="ltr" dominant-baseline="text-before-edge">HD - 1280*720 - 720P  </text><text x="0" y="25" font-family="Virgil, Segoe UI Emoji" font-size="20px" fill="#1e1e1e" text-anchor="start" style="white-space: pre;" direction="ltr" dominant-baseline="text-before-edge">FHD - 1920*1080 - 1080P</text><text x="0" y="50" font-family="Virgil, Segoe UI Emoji" font-size="20px" fill="#1e1e1e" text-anchor="start" style="white-space: pre;" direction="ltr" dominant-baseline="text-before-edge">2K - 2560*1440 - 1440P</text><text x="0" y="75" font-family="Virgil, Segoe UI Emoji" font-size="20px" fill="#1e1e1e" text-anchor="start" style="white-space: pre;" direction="ltr" dominant-baseline="text-before-edge">4K - 3840*2160 - 2160P</text><text x="0" y="100" font-family="Virgil, Segoe UI Emoji" font-size="20px" fill="#1e1e1e" text-anchor="start" style="white-space: pre;" direction="ltr" dominant-baseline="text-before-edge"></text></g><g transform="translate(684.5806470163052 408.7228441382505) rotate(0 85.38994598388672 25)"><text x="0" y="0" font-family="Virgil, Segoe UI Emoji" font-size="20px" fill="#1e1e1e" text-anchor="start" style="white-space: pre;" direction="ltr" dominant-baseline="text-before-edge">OPTIMIZACIÓN </text><text x="0" y="25" font-family="Virgil, Segoe UI Emoji" font-size="20px" fill="#1e1e1e" text-anchor="start" style="white-space: pre;" direction="ltr" dominant-baseline="text-before-edge">IMAGEN </text></g><g stroke-linecap="round"><g transform="translate(867.9704784547196 410.67641211955527) rotate(0 38.863349372314474 -15.146836971223593)"><path d="M1.59 1.89 C28.17 -9.75, 53.6 -23.39, 76.54 -31.03 M0.62 0.11 C27.8 -11.04, 53.4 -23.97, 77.1 -32.18" stroke="#1e1e1e" stroke-width="1" fill="none"></path></g><g transform="translate(867.9704784547196 410.67641211955527) rotate(0 38.863349372314474 -15.146836971223593)"><path d="M56.13 -10.52 C63.64 -17.52, 69.94 -26.73, 76.18 -30.72 M55.17 -12.29 C63.22 -18.54, 69.57 -27.01, 76.75 -31.87" stroke="#1e1e1e" stroke-width="1" fill="none"></path></g><g transform="translate(867.9704784547196 410.67641211955527) rotate(0 38.863349372314474 -15.146836971223593)"><path d="M48.7 -29.64 C58.9 -30.01, 67.78 -32.55, 76.18 -30.72 M47.73 -31.42 C58.58 -31.02, 67.53 -32.78, 76.75 -31.87" stroke="#1e1e1e" stroke-width="1" fill="none"></path></g></g><mask></mask><g transform="translate(954.8082734212308 361.9100406105813) rotate(0 106.06993865966797 25)"><text x="106.06993865966797" y="0" font-family="Virgil, Segoe UI Emoji" font-size="20px" fill="#1e1e1e" text-anchor="middle" style="white-space: pre;" direction="ltr" dominant-baseline="text-before-edge">AJUSTAR </text><text x="106.06993865966797" y="25" font-family="Virgil, Segoe UI Emoji" font-size="20px" fill="#1e1e1e" text-anchor="middle" style="white-space: pre;" direction="ltr" dominant-baseline="text-before-edge">RESOLUCIÓN (-FHD) </text></g><g stroke-linecap="round"><g transform="translate(861.4075178167782 454.43186663165136) rotate(0 58.062007827950424 34.9261824375327)"><path d="M-0.74 0.64 C33.62 22.07, 62.83 38.08, 116.87 68.56 M0.01 -0.05 C31.28 18.57, 61.43 38.05, 115.93 69.9" stroke="#1e1e1e" stroke-width="1" fill="none"></path></g><g transform="translate(861.4075178167782 454.43186663165136) rotate(0 58.062007827950424 34.9261824375327)"><path d="M85.71 64.97 C96.35 67.95, 101.45 66.21, 116.65 69.09 M86.46 64.28 C94.93 65.45, 102.55 68.33, 115.71 70.42" stroke="#1e1e1e" stroke-width="1" fill="none"></path></g><g transform="translate(861.4075178167782 454.43186663165136) rotate(0 58.062007827950424 34.9261824375327)"><path d="M96.19 47.32 C103.8 55.13, 106 58.3, 116.65 69.09 M96.94 46.64 C102.76 52.29, 107.65 59.76, 115.71 70.42" stroke="#1e1e1e" stroke-width="1" fill="none"></path></g></g><mask></mask><g transform="translate(992.2573798996223 480.34215621809165) rotate(0 65.17996978759766 37.5)"><text x="65.17996978759766" y="0" font-family="Virgil, Segoe UI Emoji" font-size="20px" fill="#1e1e1e" text-anchor="middle" style="white-space: pre;" direction="ltr" dominant-baseline="text-before-edge">CAMBIO DE </text><text x="65.17996978759766" y="25" font-family="Virgil, Segoe UI Emoji" font-size="20px" fill="#1e1e1e" text-anchor="middle" style="white-space: pre;" direction="ltr" dominant-baseline="text-before-edge">FORMATO </text><text x="65.17996978759766" y="50" font-family="Virgil, Segoe UI Emoji" font-size="20px" fill="#1e1e1e" text-anchor="middle" style="white-space: pre;" direction="ltr" dominant-baseline="text-before-edge">(WEBP)</text></g><g stroke-linecap="round"><g transform="translate(929.1097788383759 68.01541226254693) rotate(0 41.4138907470699 35.37813805697732)"><path d="M-0.42 -1.96 C26.9 21.88, 53.67 45.41, 81.77 72.72 M0.55 0.29 C31.05 28.28, 63.11 53.82, 83.25 72.48" stroke="#1e1e1e" stroke-width="1" fill="none"></path></g><g transform="translate(929.1097788383759 68.01541226254693) rotate(0 41.4138907470699 35.37813805697732)"><path d="M54.91 59.54 C64.08 63.31, 73.25 67.24, 81.41 72.18 M55.88 61.79 C65.9 66.59, 77.12 68.91, 82.9 71.94" stroke="#1e1e1e" stroke-width="1" fill="none"></path></g><g transform="translate(929.1097788383759 68.01541226254693) rotate(0 41.4138907470699 35.37813805697732)"><path d="M68.49 44.16 C73.51 52.67, 78.38 61.46, 81.41 72.18 M69.47 46.41 C74.31 56.98, 80.44 65.05, 82.9 71.94" stroke="#1e1e1e" stroke-width="1" fill="none"></path></g></g><mask></mask><g transform="translate(968.1259616229095 161.09688115807495) rotate(0 47.72996520996094 12.5)"><text x="0" y="0" font-family="Virgil, Segoe UI Emoji" font-size="20px" fill="#1e1e1e" text-anchor="start" style="white-space: pre;" direction="ltr" dominant-baseline="text-before-edge">ASPECTO</text></g><g transform="translate(988.4344451726549 206.8015141481191) rotate(0 17.61998748779297 25)"><text x="0" y="0" font-family="Virgil, Segoe UI Emoji" font-size="20px" fill="#1e1e1e" text-anchor="start" style="white-space: pre;" direction="ltr" dominant-baseline="text-before-edge">4:3</text><text x="0" y="25" font-family="Virgil, Segoe UI Emoji" font-size="20px" fill="#1e1e1e" text-anchor="start" style="white-space: pre;" direction="ltr" dominant-baseline="text-before-edge">16:9</text></g><g transform="translate(1115.894881331481 158.07230787314194) rotate(0 43.499961853027344 12.5)"><text x="0" y="0" font-family="Virgil, Segoe UI Emoji" font-size="20px" fill="#1e1e1e" text-anchor="start" style="white-space: pre;" direction="ltr" dominant-baseline="text-before-edge">PPI/PPP</text></g><g stroke-linecap="round"><g transform="translate(933.0113801071238 67.45804672762071) rotate(0 122.0049731207871 37.92494642498565)"><path d="M-0.11 -0.25 C98.05 33.62, 195.17 62.66, 243.79 76.6 M-0.22 -0.75 C60.33 17.86, 120.51 36.53, 244.23 75.1" stroke="#1e1e1e" stroke-width="1" fill="none"></path></g><g transform="translate(933.0113801071238 67.45804672762071) rotate(0 122.0049731207871 37.92494642498565)"><path d="M214.13 76.21 C226.51 78.12, 238.23 76.02, 244.49 76.1 M213.99 75.58 C221.97 76.84, 229.62 76.51, 245.04 74.24" stroke="#1e1e1e" stroke-width="1" fill="none"></path></g><g transform="translate(933.0113801071238 67.45804672762071) rotate(0 122.0049731207871 37.92494642498565)"><path d="M220.23 56.61 C230.33 66.3, 239.61 72.03, 244.49 76.1 M220.09 55.99 C226.6 62.12, 232.74 66.61, 245.04 74.24" stroke="#1e1e1e" stroke-width="1" fill="none"></path></g></g><mask></mask><g transform="translate(1245.6734381777633 152.9165384712154) rotate(0 43.889976501464844 12.5)"><text x="0" y="0" font-family="Virgil, Segoe UI Emoji" font-size="20px" fill="#1e1e1e" text-anchor="start" style="white-space: pre;" direction="ltr" dominant-baseline="text-before-edge">TAMAÑO</text></g><g stroke-linecap="round" transform="translate(1250.7146253054475 200.11306394260845) rotate(0 104.2289284289767 61.31114437569565)"><path d="M-0.8 0.96 C81.33 -0.06, 159.82 -0.99, 207.25 -0.96 M-0.21 0.88 C80.4 1.58, 161.67 2.02, 208.46 0.33 M207.73 -1.42 C206.22 45.37, 205.98 86.83, 207.62 123.58 M207.49 -0.36 C207.99 24.72, 207.98 50.94, 207.49 122.9 M207.2 122.98 C165.37 124.52, 122.83 123.09, -0.25 122.98 M207.69 122.82 C157.41 121.07, 106.26 121.37, -0.18 122.44 M0.63 123.42 C0.5 93.7, -1.19 64.85, 0.1 1.28 M0.21 122.38 C-0.24 83.16, -1.93 45.98, 0.12 -0.93" stroke="#1e1e1e" stroke-width="1" fill="none"></path></g><g stroke-linecap="round"><g transform="translate(1249.0424861764045 200.67042947753458) rotate(0 105.36769759694243 59.93480257483131)"><path d="M0.25 -1.3 C73.65 42.5, 148.32 85.97, 211.14 121.17 M-0.4 0.14 C63.21 35.87, 124.07 70.98, 210.24 120.91" stroke="#1e1e1e" stroke-width="1" fill="none"></path></g></g><mask></mask><g transform="translate(1309.2388994822481 258.07993006021815) rotate(0 17.209991455078125 12.5)"><text x="0" y="0" font-family="Virgil, Segoe UI Emoji" font-size="20px" fill="#1e1e1e" text-anchor="start" style="white-space: pre;" direction="ltr" dominant-baseline="text-before-edge">23"</text></g><g stroke-linecap="round" transform="translate(1438.5496597012818 201.22783753672525) rotate(0 10.03270720146429 9.4753416665381)"><path d="M-1.73 1.87 C4.43 -0.82, 10.86 1.03, 18.45 -1.61 M0.7 0.57 C5.01 -0.53, 11.12 0.13, 20.65 0.78 M19.85 0.12 C21.11 6.22, 21.94 12.72, 20.92 18.85 M20.66 0.55 C20.01 4.64, 20.22 8.46, 20.04 18.32 M21.08 20.67 C12.73 20.42, 7.57 19.85, 0.51 20.59 M19.79 19.37 C13.07 17.94, 7.17 18.47, 0.07 18.78 M-1.43 20.73 C-1.21 14.87, 1.3 11.08, -0.53 1.62 M-0.12 18.52 C-0.71 13.99, 0.24 7.21, -0.07 0.51" stroke="#1e1e1e" stroke-width="1" fill="none"></path></g><g stroke-linecap="round"><g transform="translate(1435.7627895023866 209.58844813341102) rotate(0 -141.43968300081087 8.628137743788926)"><path d="M1.41 0.25 C-97.22 5.14, -196.71 10.5, -284.29 16.32 M0 0.56 C-84.23 6.82, -169.23 11.64, -283.59 17" stroke="#1e1e1e" stroke-width="1" fill="none"></path></g><g transform="translate(1435.7627895023866 209.58844813341102) rotate(0 -141.43968300081087 8.628137743788926)"><path d="M-254.08 5.7 C-264.24 10.35, -275.53 13.82, -283.64 16.48 M-255.94 6.1 C-263.74 9.84, -272.57 13.1, -282.72 17.38" stroke="#1e1e1e" stroke-width="1" fill="none"></path></g><g transform="translate(1435.7627895023866 209.58844813341102) rotate(0 -141.43968300081087 8.628137743788926)"><path d="M-253.07 26.19 C-263.57 23.77, -275.21 20.15, -283.64 16.48 M-254.93 26.6 C-262.89 24.25, -272.02 21.42, -282.72 17.38" stroke="#1e1e1e" stroke-width="1" fill="none"></path></g></g><mask></mask><g transform="translate(1120.8464570272226 220.73592892899205) rotate(0 5.9799957275390625 12.5)"><text x="0" y="0" font-family="Virgil, Segoe UI Emoji" font-size="20px" fill="#1e1e1e" text-anchor="start" style="white-space: pre;" direction="ltr" dominant-baseline="text-before-edge">X</text></g><g stroke-linecap="round"><g transform="translate(99.17984636464814 331.0959632906854) rotate(0 -31.91983269755127 27.13499796209561)"><path d="M0.2 -1.79 C-15.35 12.86, -28.34 26.5, -64.22 56.06 M0.38 0.71 C-25.59 21.57, -50.94 44.09, -62.49 54.65" stroke="#1e1e1e" stroke-width="1" fill="none"></path></g><g transform="translate(99.17984636464814 331.0959632906854) rotate(0 -31.91983269755127 27.13499796209561)"><path d="M-48.18 26.38 C-52.96 34.65, -55.04 41.88, -63.73 55.53 M-48 28.88 C-54.34 37.91, -60.32 49.05, -62 54.11" stroke="#1e1e1e" stroke-width="1" fill="none"></path></g><g transform="translate(99.17984636464814 331.0959632906854) rotate(0 -31.91983269755127 27.13499796209561)"><path d="M-34.47 41.65 C-42.38 46.5, -47.52 50.33, -63.73 55.53 M-34.29 44.15 C-45.92 47.25, -57.34 52.34, -62 54.11" stroke="#1e1e1e" stroke-width="1" fill="none"></path></g></g><mask></mask><g transform="translate(10 417.4889394564384) rotate(0 30.769981384277344 12.5)"><text x="0" y="0" font-family="Virgil, Segoe UI Emoji" font-size="20px" fill="#1e1e1e" text-anchor="start" style="white-space: pre;" direction="ltr" dominant-baseline="text-before-edge">PIXEL</text></g><g stroke-linecap="round"><g transform="translate(349.9744700734648 513.56074160184) rotate(0 -30.505530196821155 -17.681368811598645)"><path d="M0.11 0.43 C-15.81 -9.06, -30.11 -18.01, -61.12 -35.17 M0.09 1 C-12.37 -7.97, -24.73 -15.55, -60.27 -36.36" stroke="#1e1e1e" stroke-width="1" fill="none"></path></g><g transform="translate(349.9744700734648 513.56074160184) rotate(0 -30.505530196821155 -17.681368811598645)"><path d="M-30.67 -30.44 C-38.29 -31.61, -44.6 -32.41, -60.89 -34.43 M-30.69 -29.87 C-36.56 -32.47, -42.42 -33.42, -60.04 -35.61" stroke="#1e1e1e" stroke-width="1" fill="none"></path></g><g transform="translate(349.9744700734648 513.56074160184) rotate(0 -30.505530196821155 -17.681368811598645)"><path d="M-41.09 -12.77 C-46.2 -18.43, -49.82 -23.79, -60.89 -34.43 M-41.12 -12.2 C-44.85 -18.58, -48.52 -23.25, -60.04 -35.61" stroke="#1e1e1e" stroke-width="1" fill="none"></path></g></g><mask></mask><g stroke-linecap="round" transform="translate(520.8041719346559 246.6585407447268) rotate(0 39.37682784450817 17.65170064806054)"><path d="M30.95 -0.13 C38.67 -1.45, 49.99 -0.72, 57.54 1.01 C65.09 2.73, 73.06 6.75, 76.23 10.21 C79.4 13.67, 78.98 18.25, 76.56 21.79 C74.14 25.34, 68.77 29.08, 61.72 31.48 C54.67 33.88, 42.71 36.4, 34.25 36.18 C25.78 35.96, 16.56 33.06, 10.96 30.16 C5.35 27.26, 1.27 22.58, 0.62 18.78 C-0.03 14.99, 1.23 10.59, 7.07 7.4 C12.92 4.21, 30.13 0.95, 35.71 -0.37 C41.29 -1.69, 40.39 -0.84, 40.57 -0.54 M43.62 0.61 C51.79 0.63, 62.03 2.77, 67.65 5.16 C73.27 7.55, 76.81 11.16, 77.34 14.97 C77.86 18.78, 75.27 24.92, 70.8 28.02 C66.33 31.12, 58.66 32.44, 50.52 33.57 C42.38 34.7, 29.99 36.4, 21.95 34.79 C13.92 33.19, 6 27.37, 2.32 23.92 C-1.36 20.47, -2.64 17.73, -0.12 14.1 C2.39 10.46, 10.24 4.31, 17.4 2.11 C24.56 -0.09, 38.75 1.21, 42.82 0.88 C46.89 0.55, 41.64 0.05, 41.81 0.14" stroke="#1e1e1e" stroke-width="1" fill="none"></path></g><g stroke-linecap="round" transform="translate(34.704222684674846 243.0942115824535) rotate(0 202.31535303840764 22.40406615235088)"><path d="M288.85 2.46 C308.2 2.92, 326.48 4.46, 341.79 6.03 C357.1 7.61, 370.85 9.8, 380.71 11.91 C390.57 14.02, 397.33 16.41, 400.97 18.71 C404.6 21.01, 405.09 23.5, 402.51 25.73 C399.93 27.96, 394.47 30.23, 385.5 32.1 C376.54 33.97, 363.17 35.21, 348.73 36.95 C334.28 38.69, 317.22 41.3, 298.83 42.55 C280.44 43.8, 258.72 44.11, 238.38 44.47 C218.04 44.84, 197.5 45.17, 176.81 44.74 C156.12 44.31, 133.32 43, 114.22 41.9 C95.12 40.81, 77.29 39.58, 62.2 38.19 C47.1 36.79, 33.4 35.45, 23.65 33.52 C13.9 31.59, 7.35 29.03, 3.69 26.61 C0.02 24.19, -1.12 21.42, 1.68 18.99 C4.47 16.56, 11.61 14.03, 20.44 12.03 C29.27 10.04, 40.33 8.67, 54.66 7 C68.98 5.34, 87.86 3.17, 106.41 2.05 C124.96 0.93, 145.43 0.5, 165.98 0.29 C186.52 0.08, 208.23 0.33, 229.68 0.8 C251.14 1.26, 283.06 2.61, 294.68 3.07 C306.3 3.52, 300.93 3.33, 299.39 3.54 M281.18 0.77 C300.91 1.58, 321.49 4.73, 337.34 6.45 C353.19 8.17, 365.89 9.47, 376.27 11.1 C386.65 12.72, 395.12 14.18, 399.6 16.19 C404.09 18.21, 405.12 20.69, 403.17 23.19 C401.22 25.68, 396.1 29.02, 387.9 31.16 C379.7 33.3, 367.73 34.02, 353.95 36.01 C340.18 38.01, 323.19 41.54, 305.24 43.13 C287.29 44.72, 266.59 45.14, 246.24 45.56 C225.89 45.97, 204.11 46.2, 183.15 45.63 C162.19 45.06, 139.66 43.09, 120.49 42.15 C101.32 41.2, 83.4 41.3, 68.12 39.94 C52.83 38.58, 39.26 35.98, 28.79 34 C18.32 32.02, 10.05 30.12, 5.28 28.04 C0.51 25.96, -1.82 23.99, 0.17 21.54 C2.16 19.08, 8.99 15.81, 17.2 13.31 C25.42 10.81, 35.81 8.2, 49.45 6.53 C63.09 4.86, 81.17 4.27, 99.06 3.28 C116.94 2.3, 136.27 1.15, 156.73 0.63 C177.2 0.11, 200.95 0.09, 221.86 0.15 C242.76 0.22, 272.15 0.51, 282.17 1.05 C292.19 1.59, 283.12 2.75, 281.97 3.39" stroke="#1e1e1e" stroke-width="1" fill="none"></path></g><g stroke-linecap="round"><g transform="translate(235.17054188424618 289.40891364994746) rotate(0 -7.633814009051207 16.032244762055655)"><path d="M1.31 1.3 C-5.61 11.8, -10.93 24.79, -16.58 31.24 M0.42 0.11 C-3.24 7.48, -5.96 13.16, -15.19 31.96" stroke="#1e1e1e" stroke-width="1" fill="none"></path></g><g transform="translate(235.17054188424618 289.40891364994746) rotate(0 -7.633814009051207 16.032244762055655)"><path d="M-12.09 15.22 C-13.77 20.5, -14.11 28.08, -15.97 30.9 M-12.9 14.15 C-13.55 18.38, -13.4 21.1, -14.72 31.55" stroke="#1e1e1e" stroke-width="1" fill="none"></path></g><g transform="translate(235.17054188424618 289.40891364994746) rotate(0 -7.633814009051207 16.032244762055655)"><path d="M-1.03 20.64 C-6.7 24.01, -11.07 29.62, -15.97 30.9 M-1.84 19.57 C-4.82 22.65, -7.02 24.22, -14.72 31.55" stroke="#1e1e1e" stroke-width="1" fill="none"></path></g></g><mask></mask><g stroke-linecap="round" transform="translate(433.90366314886523 323.37541841360195) rotate(0 110.6624010531898 95.04747842527044)"><path d="M-1.34 -0.07 C82.41 0.49, 165 -1.45, 222.04 0.84 M-0.01 -0.69 C66.82 0.61, 132.99 0.55, 221.47 -0.76 M221.86 1.91 C223.01 42.34, 222.05 84.16, 220.58 190.87 M221.85 0.51 C222.64 75.5, 222.4 150.56, 221.72 190.84 M222.84 188.38 C150.02 188.98, 80.57 190.88, -1.3 189.82 M221.43 189.4 C151.69 192.39, 84.17 191.39, 0.47 190.18 M0.55 191.77 C-0.12 120.53, 0.31 52.79, -0.72 -1.58 M-0.21 189.35 C-0.28 140.04, 0.04 91.59, 0 0.25" stroke="#1e1e1e" stroke-width="1" fill="none"></path></g><g stroke-linecap="round"><g transform="translate(609.0625327338737 476.80919964973145) rotate(0 -62.077596090567226 -53.889049323269944)"><path d="M1.25 1.72 C-49.2 -44.1, -93.43 -81.76, -124.65 -108.46 M0.58 -0.92 C-42.94 -36.12, -86.1 -73.43, -125.41 -109.5" stroke="#1e1e1e" stroke-width="1" fill="none"></path></g></g><mask></mask><g stroke-linecap="round"><g transform="translate(1135.4996697482638 515.2925182353457) rotate(0 43.47347414633259 -31.40472856742622)"><path d="M-0.93 1.05 C31.32 -19.96, 61.65 -43.55, 87.13 -63.86 M0.24 0.94 C28.34 -20.19, 55.75 -40.44, 87.88 -62.37" stroke="#1e1e1e" stroke-width="1" fill="none"></path></g><g transform="translate(1135.4996697482638 515.2925182353457) rotate(0 43.47347414633259 -31.40472856742622)"><path d="M69.68 -36.79 C77.09 -44.86, 82.56 -54.97, 87.19 -63.39 M70.85 -36.9 C76.78 -45.5, 82.24 -53.83, 87.94 -61.9" stroke="#1e1e1e" stroke-width="1" fill="none"></path></g><g transform="translate(1135.4996697482638 515.2925182353457) rotate(0 43.47347414633259 -31.40472856742622)"><path d="M57.95 -53.63 C69.49 -55.68, 79.1 -59.85, 87.19 -63.39 M59.12 -53.74 C68.6 -57.21, 77.71 -60.3, 87.94 -61.9" stroke="#1e1e1e" stroke-width="1" fill="none"></path></g></g><mask></mask><g stroke-linecap="round"><g transform="translate(1169.7193505343967 376.46446452210387) rotate(0 30.781361462082714 26.949208742473274)"><path d="M-1.62 0.42 C22.48 17.64, 44.57 37.1, 62.26 54.58 M0.24 -0.69 C12.09 11.79, 25.66 22.05, 63.18 53.8" stroke="#1e1e1e" stroke-width="1" fill="none"></path></g><g transform="translate(1169.7193505343967 376.46446452210387) rotate(0 30.781361462082714 26.949208742473274)"><path d="M33.37 43.96 C45.34 45.87, 55.19 49.82, 63.04 54.78 M35.22 42.85 C39.86 46.53, 46.5 48.02, 63.96 53.99" stroke="#1e1e1e" stroke-width="1" fill="none"></path></g><g transform="translate(1169.7193505343967 376.46446452210387) rotate(0 30.781361462082714 26.949208742473274)"><path d="M46.56 28.24 C53.77 35.85, 58.9 45.43, 63.04 54.78 M48.42 27.13 C50.48 33.99, 54.45 38.66, 63.96 53.99" stroke="#1e1e1e" stroke-width="1" fill="none"></path></g></g><mask></mask><g transform="translate(1230.5295540866427 418.0645011431976) rotate(0 117.5899429321289 37.5)"><text x="117.5899429321289" y="0" font-family="Virgil, Segoe UI Emoji" font-size="20px" fill="#1e1e1e" text-anchor="middle" style="white-space: pre;" direction="ltr" dominant-baseline="text-before-edge">OBJETIVO</text><text x="117.5899429321289" y="25" font-family="Virgil, Segoe UI Emoji" font-size="20px" fill="#1e1e1e" text-anchor="middle" style="white-space: pre;" direction="ltr" dominant-baseline="text-before-edge">DISMINUIR EL </text><text x="117.5899429321289" y="50" font-family="Virgil, Segoe UI Emoji" font-size="20px" fill="#1e1e1e" text-anchor="middle" style="white-space: pre;" direction="ltr" dominant-baseline="text-before-edge">TAMAÑO DEL ARCHIVO</text></g></svg>